<svg width="2152" height="2152" viewBox="0 0 2152 2152" fill="none" xmlns="http://www.w3.org/2000/svg">
<g clip-path="url(#clip0_55_55)">
<g opacity="0.92">
<circle cx="1076" cy="1076" r="1076" fill="url(#paint0_linear_55_55)"/>
<circle cx="1076" cy="1076" r="1076" fill="url(#paint1_linear_55_55)"/>
</g>
<path fill-rule="evenodd" clip-rule="evenodd" d="M592.5 1157L551 1324.5C551 1324.5 1153.31 1328.83 1166 1324.5C1178.69 1320.17 1206.35 1299.6 1215.5 1252C1226.93 1192.5 1197 1157 1156 1157H592.5ZM578.5 1306L610.5 1178H1156C1181 1178 1204 1192.5 1195 1252C1187.8 1299.6 1166 1305.5 1156 1306C1146 1306.5 578.5 1306 578.5 1306Z" fill="black"/>
<path fill-rule="evenodd" clip-rule="evenodd" d="M562.5 520C562.5 520 1295 520 1382.5 520C1410.92 520 1441.58 526.982 1471.37 540C1478.9 543.287 1486.36 546.959 1493.73 551C1499.93 554.407 1506.07 558.077 1512.09 562C1550.78 587.187 1585.15 622.824 1607.25 666.5C1609.89 671.72 1612.36 677.055 1614.63 682.5C1615.81 685.304 1616.93 688.138 1618 691C1618.69 692.838 1619.35 694.671 1619.98 696.5C1622.76 704.601 1624.99 712.607 1626.72 720.5C1627.52 724.192 1628.22 727.859 1628.81 731.5C1629.47 735.534 1630 739.535 1630.41 743.5C1631.67 755.693 1631.81 767.551 1631.07 779C1626.86 844.111 1594.2 895.998 1578 921L1551.5 915C1577 883 1627.7 801 1594.5 691C1560 576.693 1421 540 1382.5 540C1344 540 578.5 540 578.5 540L311 1602H454.5L461 1576H341.5L596.5 562C596.5 562 1313 561.5 1365.5 562C1418 562.5 1535.6 607.8 1570 691C1604.4 774.2 1556 872 1527.5 910.5H1315.5C1373.5 811.5 1359.18 777.438 1354 765.5C1342.5 739 1319.5 717.5 1236.5 720.5H685L607.5 1023H655.5H685C694.833 1050.5 741.2 1106.2 848 1109C954.8 1111.8 1261.17 1110.17 1401 1109C1430 1109 1481.3 1143 1468.5 1201C1455.7 1259 1434.5 1368.5 1401 1408C1367.5 1447.5 1349 1441.5 1287 1443.5C1225 1445.5 742.833 1447.33 514.5 1446.5L476 1602H1365.5C1421 1598.33 1540.5 1581 1587 1468.5C1621.5 1385.03 1676.5 1146.5 1676.5 1094C1676.5 1041.5 1634.5 946.213 1468.5 948.5C1323.3 950.5 1062.33 949.333 950 948.5C930.833 947.833 898.96 935.151 912 886L942 765.5H920C920 765.5 883.167 902.333 882.5 919C881.833 935.667 889 969.5 923 971.5C957 973.5 1300.83 972.333 1468.5 971.5C1567.5 971.008 1661.5 1029.5 1641.5 1147C1621.5 1264.5 1580.33 1406.83 1555 1451C1529.67 1495.17 1460 1576 1352 1576H503.5L531.5 1463.5H1352C1372.83 1461.33 1419.9 1445.5 1441.5 1399.5C1463.1 1353.5 1498 1192.5 1498 1192.5C1503.67 1157 1492.2 1093.2 1401 1094C1309.8 1094.8 994.333 1094.33 848 1094C799.333 1094 693.5 1063 693.5 981.5L747.5 765.5H730.5L676.5 981.5H649.5L709.5 743.5H1287C1322 743.5 1376 779 1290.5 910.5H1267.5C1290.5 870.5 1335 773 1287 765.5H973.5L943.5 886C943.5 886 926.8 927.5 972 927.5H1255H1279H1304.5H1468.5C1480.45 927.5 1496.22 928.392 1514 930.771C1521.36 931.757 1529.07 932.998 1537 934.536C1545.15 936.117 1553.53 938.014 1562 940.271C1643.58 962.011 1733.42 1017.21 1706.5 1147C1667.5 1335 1640 1413 1621.5 1468.5C1603 1524 1530.4 1629.5 1352 1631.5C1173.6 1633.5 565 1632.33 283 1631.5L562.5 520ZM524.5 1343.5L578.5 1135.5H1156C1227 1135.5 1249 1178 1236.5 1252C1224 1326 1189.5 1339.67 1166 1343.5H524.5ZM713.5 981.5L769 765.5H901.5L865 910.5C853.4 966.9 899.833 986.333 923 989C1052.33 989.333 1342.5 989 1468.5 989C1598 989 1630.78 1070 1621.5 1147C1612.22 1224 1580.69 1358.7 1537.5 1443.5C1494.31 1528.3 1404.84 1556.5 1365.5 1560H527L547.5 1479H1352C1408.8 1480.2 1446.33 1432.17 1458 1408C1469.67 1383.83 1517.5 1192.5 1517.5 1192.5C1533.1 1105.3 1454.67 1077.67 1413.5 1074.5C1273 1074.33 963.8 1074.1 851 1074.5C738.2 1074.9 712 1008.5 713.5 981.5Z" fill="black"/>
<path d="M1468.5 520H1869.5L1819.5 720.5H1659V696.5H1795L1831 540H1515L1468.5 520Z" fill="black"/>
<path d="M1539.5 551L1560 562H1798L1774.79 666.5H1659.79V682.5H1784.79L1815.5 551H1539.5Z" fill="black"/>
<path d="M676.5 981.5H649.5C648.667 987 648.7 1003 655.5 1023H685C675.8 1006.48 675.5 988.452 676.5 981.5Z" fill="black"/>
<path d="M1290.5 910.5H1267.5L1255 927.5H1279L1290.5 910.5Z" fill="black"/>
<path d="M1527.5 910.5H1315.5L1304.5 927.5H1468.5C1480.45 927.5 1496.22 928.392 1514 930.771L1527.5 910.5Z" fill="black"/>
<path d="M1578 921L1551.5 915L1537 934.536C1545.15 936.117 1553.53 938.014 1562 940.271L1578 921Z" fill="black"/>
<path d="M1515 540L1468.5 520L1382.5 520C1410.92 520 1441.58 526.982 1471.37 540H1515Z" fill="black"/>
<path d="M1560 562L1539.5 551H1493.73C1499.93 554.407 1506.07 558.077 1512.09 562H1560Z" fill="black"/>
<path d="M1659.79 682.5V666.5H1607.25C1609.89 671.72 1612.36 677.055 1614.63 682.5H1659.79Z" fill="black"/>
<path d="M1659 720.5V696.5H1619.98C1622.76 704.601 1624.99 712.607 1626.72 720.5H1659Z" fill="black"/>
<path d="M1382.5 520C1295 520 562.5 520 562.5 520L283 1631.5C565 1632.33 1173.6 1633.5 1352 1631.5C1530.4 1629.5 1603 1524 1621.5 1468.5C1640 1413 1667.5 1335 1706.5 1147C1733.42 1017.21 1643.58 962.011 1562 940.271M1382.5 520C1410.92 520 1441.58 526.982 1471.37 540M1659 720.5H1819.5L1869.5 520H1468.5L1382.5 520M1578 921L1551.5 915M1614.63 682.5C1615.81 685.304 1616.93 688.138 1618 691C1618.69 692.838 1619.35 694.671 1619.98 696.5C1622.76 704.601 1624.99 712.608 1626.72 720.5C1627.52 724.192 1628.22 727.859 1628.81 731.5C1629.47 735.534 1630 739.535 1630.41 743.5C1631.67 755.693 1631.81 767.551 1631.07 779C1626.87 844.111 1594.2 895.998 1578 921L1562 940.271M1537 934.536L1551.5 915C1577 883 1627.7 801 1594.5 691C1560 576.693 1421 540 1382.5 540C1344 540 578.5 540 578.5 540L311 1602H454.5L461 1576H341.5L596.5 562C596.5 562 1313 561.5 1365.5 562C1418 562.5 1535.6 607.8 1570 691C1604.4 774.2 1556 872 1527.5 910.5M1527.5 910.5H1315.5M1527.5 910.5L1514 930.771M1315.5 910.5C1373.5 811.5 1359.18 777.438 1354 765.5C1342.5 739 1319.5 717.5 1236.5 720.5H685L607.5 1023H655.5M1315.5 910.5L1304.5 927.5M676.5 981.5C675.5 988.452 675.8 1006.48 685 1023C694.833 1050.5 741.2 1106.2 848 1109C954.8 1111.8 1261.17 1110.17 1401 1109C1430 1109 1481.3 1143 1468.5 1201C1455.7 1259 1434.5 1368.5 1401 1408C1367.5 1447.5 1349 1441.5 1287 1443.5C1225 1445.5 742.833 1447.33 514.5 1446.5L476 1602H1365.5C1421 1598.33 1540.5 1581 1587 1468.5C1621.5 1385.03 1676.5 1146.5 1676.5 1094C1676.5 1041.5 1634.5 946.213 1468.5 948.5C1323.3 950.5 1062.33 949.333 950 948.5C930.833 947.833 898.96 935.152 912 886L942 765.5H920C920 765.5 883.167 902.333 882.5 919C881.833 935.667 889 969.5 923 971.5C957 973.5 1300.83 972.333 1468.5 971.5C1567.5 971.008 1661.5 1029.5 1641.5 1147C1621.5 1264.5 1580.33 1406.83 1555 1451C1529.67 1495.17 1460 1576 1352 1576M685 1023H655.5M1352 1576C1244 1576 741.333 1576 503.5 1576M676.5 981.5L730.5 765.5H747.5L693.5 981.5C693.5 1063 799.333 1094 848 1094C994.333 1094.33 1309.8 1094.8 1401 1094C1492.2 1093.2 1503.67 1157 1498 1192.5C1498 1192.5 1463.1 1353.5 1441.5 1399.5C1419.9 1445.5 1372.83 1461.33 1352 1463.5H531.5L503.5 1576H1352M676.5 981.5H649.5M655.5 1023C648.7 1003 648.667 987 649.5 981.5L709.5 743.5H1287C1322 743.5 1376 779 1290.5 910.5L1279 927.5M1290.5 910.5H1267.5M1267.5 910.5C1290.5 870.5 1335 773 1287 765.5H973.5L943.5 886C943.5 886 926.8 927.5 972 927.5H1255M1267.5 910.5L1255 927.5M1468.5 520L1515 540M1659 720.5V696.5M1659 720.5H1626.72M1659 696.5H1795L1831 540H1515M1659 696.5H1619.98M1515 540H1471.37M1539.5 551L1560 562M1539.5 551H1815.5L1784.79 682.5H1659.79M1539.5 551H1493.73M1560 562H1798L1774.79 666.5H1659.79M1560 562H1512.09M1659.79 666.5V682.5M1659.79 666.5H1607.25M1659.79 682.5H1614.63M1156 1135.5C1085 1135.5 757.833 1135.5 578.5 1135.5L524.5 1343.5H1166C1189.5 1339.67 1224 1326 1236.5 1252C1249 1178 1227 1135.5 1156 1135.5ZM578.5 1135.5H1156M1156 1157C1123.2 1157 765.333 1157 592.5 1157L551 1324.5C551 1324.5 1153.31 1328.83 1166 1324.5C1178.69 1320.17 1206.35 1299.6 1215.5 1252C1226.93 1192.5 1197 1157 1156 1157ZM592.5 1157H1156M1156 1178C1136 1178 785 1178 610.5 1178L578.5 1306C578.5 1306 1146 1306.5 1156 1306C1166 1305.5 1187.8 1299.6 1195 1252C1204 1192.5 1181 1178 1156 1178ZM610.5 1178H1156M1279 927.5H1255M1279 927.5H1304.5M1537 934.536C1529.07 932.998 1521.36 931.757 1514 930.771C1496.22 928.392 1480.45 927.5 1468.5 927.5H1304.5M1537 934.536C1545.15 936.117 1553.53 938.014 1562 940.271M1512.09 562C1506.07 558.077 1499.93 554.407 1493.73 551M1512.09 562C1550.78 587.187 1585.15 622.824 1607.25 666.5M1493.73 551C1486.36 546.959 1478.9 543.287 1471.37 540M1614.63 682.5C1612.36 677.055 1609.89 671.72 1607.25 666.5M769 765.5L713.5 981.5C712 1008.5 738.2 1074.9 851 1074.5C963.8 1074.1 1273 1074.33 1413.5 1074.5C1454.67 1077.67 1533.1 1105.3 1517.5 1192.5C1517.5 1192.5 1469.67 1383.83 1458 1408C1446.33 1432.17 1408.8 1480.2 1352 1479H547.5L527 1560H1365.5C1404.84 1556.5 1494.31 1528.3 1537.5 1443.5C1580.69 1358.7 1612.22 1224 1621.5 1147C1630.78 1070 1598 989 1468.5 989C1342.5 989 1052.33 989.333 923 989C899.833 986.333 853.4 966.9 865 910.5L901.5 765.5H769Z" stroke="black"/>
<path d="M936.175 1058.23C935.675 1058.23 935.325 1058.05 935.125 1057.7C934.925 1057.35 934.825 1056.97 934.825 1056.57C934.875 1055.72 935.075 1055.25 935.425 1055.15C935.775 1055.05 936.2 1055 936.7 1055C938.3 1055 939.425 1054.72 940.075 1054.17C940.725 1053.57 941.125 1052.85 941.275 1052C941.475 1051.1 941.575 1050.17 941.575 1049.22V1019.45C941.575 1018.5 941.475 1017.6 941.275 1016.75C941.125 1015.85 940.725 1015.12 940.075 1014.57C939.425 1013.97 938.3 1013.67 936.7 1013.67C936.2 1013.67 935.775 1013.62 935.425 1013.52C935.075 1013.42 934.875 1012.95 934.825 1012.1C934.825 1011.7 934.925 1011.32 935.125 1010.97C935.325 1010.62 935.675 1010.45 936.175 1010.45C937.775 1010.5 939.275 1010.55 940.675 1010.6C942.075 1010.65 943.525 1010.67 945.025 1010.67H969.1C969.65 1010.67 970.1 1010.8 970.45 1011.05C970.85 1011.3 971.05 1011.77 971.05 1012.47L971.275 1023.05C971.275 1023.55 971.075 1023.92 970.675 1024.17C970.275 1024.42 969.875 1024.55 969.475 1024.55C968.925 1024.55 968.375 1024.45 967.825 1024.25C967.325 1024 967.025 1023.65 966.925 1023.2C966.575 1020.95 966.15 1019.15 965.65 1017.8C965.2 1016.4 964.5 1015.37 963.55 1014.72C962.65 1014.07 961.325 1013.72 959.575 1013.67H949V1030.4C951.8 1029.95 954.375 1029.72 956.725 1029.72C960.825 1029.72 964.225 1030.35 966.925 1031.6C969.675 1032.8 971.725 1034.45 973.075 1036.55C974.475 1038.6 975.175 1040.95 975.175 1043.6C975.175 1046.45 974.525 1048.8 973.225 1050.65C971.925 1052.5 970.225 1053.97 968.125 1055.07C966.025 1056.17 963.75 1056.95 961.3 1057.4C958.9 1057.85 956.575 1058.08 954.325 1058.08L945.1 1058C943.6 1058 942.125 1058 940.675 1058C939.275 1058.05 937.775 1058.13 936.175 1058.23ZM954.55 1055C956.8 1054.95 958.85 1054.6 960.7 1053.95C962.55 1053.25 964.025 1052.1 965.125 1050.5C966.275 1048.85 966.85 1046.57 966.85 1043.67C966.85 1041.02 966.2 1038.92 964.9 1037.37C963.6 1035.82 961.95 1034.72 959.95 1034.07C957.95 1033.37 955.875 1033.02 953.725 1033.02C952.925 1033.02 952.125 1033.05 951.325 1033.1C950.525 1033.15 949.75 1033.27 949 1033.47V1048.77C949 1051.27 949.4 1052.95 950.2 1053.8C951 1054.6 952.45 1055 954.55 1055ZM983.84 1058.23C983.39 1058.23 983.065 1058.05 982.865 1057.7C982.665 1057.35 982.565 1056.97 982.565 1056.57C982.615 1055.72 982.815 1055.25 983.165 1055.15C983.515 1055.05 983.94 1055 984.44 1055C986.04 1055 987.165 1054.72 987.815 1054.17C988.465 1053.57 988.865 1052.85 989.015 1052C989.215 1051.1 989.315 1050.17 989.315 1049.22V1019.45C989.315 1018.5 989.215 1017.6 989.015 1016.75C988.865 1015.85 988.465 1015.12 987.815 1014.57C987.165 1013.97 986.04 1013.67 984.44 1013.67C983.94 1013.67 983.515 1013.62 983.165 1013.52C982.815 1013.42 982.615 1012.95 982.565 1012.1C982.565 1011.7 982.665 1011.32 982.865 1010.97C983.065 1010.62 983.39 1010.45 983.84 1010.45C985.49 1010.5 987.015 1010.55 988.415 1010.6C989.815 1010.65 991.265 1010.67 992.765 1010.67H1016.31C1016.86 1010.67 1017.31 1010.8 1017.66 1011.05C1018.06 1011.3 1018.26 1011.77 1018.26 1012.47L1018.49 1022.97C1018.49 1023.47 1018.24 1023.85 1017.74 1024.1C1017.29 1024.35 1016.86 1024.47 1016.46 1024.47C1015.91 1024.47 1015.41 1024.37 1014.96 1024.17C1014.51 1023.92 1014.24 1023.57 1014.14 1023.12C1013.79 1020.87 1013.36 1019.07 1012.86 1017.72C1012.41 1016.33 1011.71 1015.32 1010.76 1014.72C1009.86 1014.07 1008.54 1013.72 1006.79 1013.67H996.74V1032.72H1010.31C1010.71 1032.77 1010.99 1032.97 1011.14 1033.32C1011.34 1033.67 1011.44 1034.05 1011.44 1034.45C1011.44 1034.8 1011.34 1035.15 1011.14 1035.5C1010.99 1035.8 1010.71 1035.95 1010.31 1035.95H996.74V1050.12C996.79 1050.77 996.89 1051.5 997.04 1052.3C997.19 1053.05 997.615 1053.7 998.315 1054.25C999.065 1054.8 1000.29 1055.05 1001.99 1055H1008.89C1010.64 1054.95 1011.96 1054.67 1012.86 1054.17C1013.81 1053.62 1014.56 1052.72 1015.11 1051.47C1015.66 1050.22 1016.26 1048.5 1016.91 1046.3C1017.11 1045.8 1017.44 1045.47 1017.89 1045.32C1018.39 1045.17 1018.91 1045.15 1019.46 1045.25C1019.86 1045.3 1020.26 1045.47 1020.66 1045.77C1021.11 1046.07 1021.31 1046.47 1021.26 1046.98L1019.76 1056.42C1019.61 1057.12 1019.36 1057.57 1019.01 1057.77C1018.71 1057.92 1018.24 1058 1017.59 1058H992.84C991.34 1058 989.865 1058 988.415 1058C987.015 1058.05 985.49 1058.13 983.84 1058.23ZM1034.67 1058.75C1031.77 1058.75 1029.57 1058.05 1028.07 1056.65C1026.62 1055.25 1025.9 1053.62 1025.9 1051.77C1025.9 1050.07 1026.42 1048.72 1027.47 1047.72C1028.52 1046.67 1029.8 1046.15 1031.3 1046.15C1031.9 1046.15 1032.37 1046.22 1032.72 1046.37C1033.12 1046.52 1033.35 1046.67 1033.4 1046.82C1033.4 1046.97 1033.25 1047.3 1032.95 1047.8C1032.7 1048.25 1032.57 1048.85 1032.57 1049.6C1032.57 1051.55 1033.62 1052.52 1035.72 1052.52C1037.67 1052.52 1039.2 1051.15 1040.3 1048.4C1041.45 1045.65 1042.37 1041.8 1043.07 1036.85C1043.82 1031.85 1044.57 1026.05 1045.32 1019.45C1045.57 1017.25 1045.37 1015.75 1044.72 1014.95C1044.07 1014.1 1042.75 1013.67 1040.75 1013.67C1040.25 1013.67 1039.82 1013.62 1039.47 1013.52C1039.12 1013.42 1038.92 1012.95 1038.87 1012.1C1038.87 1011.7 1038.97 1011.32 1039.17 1010.97C1039.37 1010.62 1039.72 1010.45 1040.22 1010.45C1041.82 1010.5 1043.32 1010.55 1044.72 1010.6C1046.17 1010.65 1047.62 1010.67 1049.07 1010.67H1067.97C1069.47 1010.67 1070.92 1010.65 1072.32 1010.6C1073.72 1010.55 1075.22 1010.5 1076.82 1010.45C1077.32 1010.45 1077.67 1010.62 1077.87 1010.97C1078.07 1011.32 1078.17 1011.7 1078.17 1012.1C1078.12 1012.95 1077.92 1013.42 1077.57 1013.52C1077.27 1013.62 1076.85 1013.67 1076.3 1013.67C1074.3 1013.67 1073 1014.2 1072.4 1015.25C1071.8 1016.25 1071.47 1017.65 1071.42 1019.45V1049.22C1071.47 1050.17 1071.57 1051.1 1071.72 1052C1071.87 1052.85 1072.27 1053.57 1072.92 1054.17C1073.62 1054.72 1074.75 1055 1076.3 1055C1076.85 1055 1077.27 1055.05 1077.57 1055.15C1077.92 1055.25 1078.12 1055.72 1078.17 1056.57C1078.17 1056.97 1078.07 1057.35 1077.87 1057.7C1077.67 1058.05 1077.32 1058.23 1076.82 1058.23C1075.22 1058.13 1073.7 1058.05 1072.25 1058C1070.85 1058 1069.4 1058 1067.9 1058C1064.95 1058 1061.85 1058.08 1058.6 1058.23C1058.1 1058.23 1057.75 1058.05 1057.55 1057.7C1057.35 1057.35 1057.25 1056.97 1057.25 1056.57C1057.3 1055.72 1057.5 1055.25 1057.85 1055.15C1058.2 1055.05 1058.62 1055 1059.12 1055C1060.72 1055 1061.85 1054.72 1062.5 1054.17C1063.15 1053.57 1063.55 1052.85 1063.7 1052C1063.9 1051.1 1064 1050.17 1064 1049.22V1013.9H1053.5C1052.2 1013.9 1051.22 1014.15 1050.57 1014.65C1049.97 1015.15 1049.55 1016.57 1049.3 1018.92C1048.75 1024.47 1048.15 1029.67 1047.5 1034.52C1046.85 1039.32 1046.02 1043.55 1045.02 1047.2C1044.02 1050.8 1042.7 1053.62 1041.05 1055.67C1039.4 1057.73 1037.27 1058.75 1034.67 1058.75ZM1087.01 1043.07C1086.51 1043.07 1086.08 1042.8 1085.73 1042.25C1085.43 1041.7 1085.28 1041.17 1085.28 1040.67C1085.28 1040.12 1085.43 1039.6 1085.73 1039.1C1086.08 1038.55 1086.51 1038.27 1087.01 1038.27H1103.43C1103.98 1038.27 1104.41 1038.55 1104.71 1039.1C1105.01 1039.6 1105.16 1040.12 1105.16 1040.67C1105.16 1041.17 1105.01 1041.7 1104.71 1042.25C1104.41 1042.8 1103.98 1043.07 1103.43 1043.07H1087.01ZM1133.48 1059.5C1129.28 1059.5 1125.43 1058.5 1121.93 1056.5C1118.43 1054.5 1115.61 1051.65 1113.46 1047.95C1111.36 1044.25 1110.31 1039.82 1110.31 1034.67C1110.31 1029.57 1111.31 1025.12 1113.31 1021.32C1115.31 1017.47 1118.13 1014.5 1121.78 1012.4C1125.48 1010.25 1129.83 1009.17 1134.83 1009.17C1136.63 1009.17 1138.48 1009.35 1140.38 1009.7C1142.33 1010.05 1144.13 1010.65 1145.78 1011.5C1147.43 1012.3 1148.76 1013.37 1149.76 1014.72C1150.81 1016.07 1151.33 1017.75 1151.33 1019.75C1151.38 1021.9 1150.73 1023.8 1149.38 1025.45C1148.03 1027.05 1146.13 1027.85 1143.68 1027.85C1142.18 1027.85 1141.11 1027.5 1140.46 1026.8C1139.86 1026.05 1139.58 1025.5 1139.63 1025.15C1139.63 1025 1139.93 1024.75 1140.53 1024.4C1141.18 1024 1141.81 1023.42 1142.41 1022.67C1143.06 1021.87 1143.38 1020.82 1143.38 1019.52C1143.38 1017.27 1142.63 1015.5 1141.13 1014.2C1139.63 1012.85 1137.51 1012.17 1134.76 1012.17C1131.76 1012.17 1129.06 1013.02 1126.66 1014.72C1124.31 1016.42 1122.46 1018.92 1121.11 1022.22C1119.76 1025.47 1119.08 1029.47 1119.08 1034.22C1119.08 1038.22 1119.78 1041.87 1121.18 1045.17C1122.63 1048.42 1124.63 1051.02 1127.18 1052.97C1129.78 1054.87 1132.78 1055.82 1136.18 1055.82C1138.88 1055.82 1141.18 1055.27 1143.08 1054.17C1145.03 1053.02 1146.78 1051.2 1148.33 1048.7C1148.78 1047.85 1149.58 1047.77 1150.73 1048.47C1151.18 1048.77 1151.53 1049.15 1151.78 1049.6C1152.03 1050 1151.98 1050.42 1151.63 1050.87C1149.73 1053.27 1147.93 1055.1 1146.23 1056.35C1144.53 1057.55 1142.68 1058.38 1140.68 1058.83C1138.68 1059.28 1136.28 1059.5 1133.48 1059.5ZM1167.96 1058.23C1167.46 1058.23 1167.11 1058.05 1166.91 1057.7C1166.71 1057.35 1166.61 1056.97 1166.61 1056.57C1166.66 1055.72 1166.86 1055.25 1167.21 1055.15C1167.56 1055.05 1167.99 1055 1168.49 1055C1170.09 1055 1171.21 1054.72 1171.86 1054.17C1172.51 1053.57 1172.91 1052.85 1173.06 1052C1173.26 1051.1 1173.36 1050.17 1173.36 1049.22V1013.45H1168.19C1166.49 1013.5 1165.16 1013.87 1164.21 1014.57C1163.26 1015.22 1162.56 1016.27 1162.11 1017.72C1161.66 1019.12 1161.26 1020.95 1160.91 1023.2C1160.86 1023.65 1160.54 1024 1159.94 1024.25C1159.39 1024.45 1158.84 1024.55 1158.29 1024.55C1157.94 1024.55 1157.54 1024.42 1157.09 1024.17C1156.69 1023.92 1156.49 1023.55 1156.49 1023.05L1156.71 1012.47C1156.71 1011.77 1156.91 1011.3 1157.31 1011.05C1157.71 1010.8 1158.19 1010.67 1158.74 1010.67H1195.41C1195.96 1010.67 1196.41 1010.8 1196.76 1011.05C1197.16 1011.3 1197.36 1011.77 1197.36 1012.47L1197.66 1023.05C1197.66 1023.55 1197.44 1023.92 1196.99 1024.17C1196.59 1024.42 1196.19 1024.55 1195.79 1024.55C1195.29 1024.55 1194.76 1024.45 1194.21 1024.25C1193.66 1024 1193.34 1023.65 1193.24 1023.2C1192.89 1020.95 1192.46 1019.12 1191.96 1017.72C1191.51 1016.27 1190.81 1015.22 1189.86 1014.57C1188.96 1013.87 1187.64 1013.5 1185.89 1013.45H1180.79V1049.22C1180.84 1050.17 1180.94 1051.1 1181.09 1052C1181.24 1052.85 1181.64 1053.57 1182.29 1054.17C1182.99 1054.72 1184.11 1055 1185.66 1055C1186.16 1055 1186.59 1055.05 1186.94 1055.15C1187.29 1055.25 1187.49 1055.72 1187.54 1056.57C1187.54 1056.97 1187.44 1057.35 1187.24 1057.7C1187.04 1058.05 1186.69 1058.23 1186.19 1058.23C1184.59 1058.13 1183.06 1058.05 1181.61 1058C1180.21 1058 1178.79 1058 1177.34 1058C1174.34 1058 1171.21 1058.08 1167.96 1058.23ZM1203.13 1058.23C1202.68 1058.23 1202.33 1058.05 1202.08 1057.7C1201.88 1057.35 1201.78 1056.97 1201.78 1056.57C1201.83 1055.72 1202.03 1055.25 1202.38 1055.15C1202.78 1055.05 1203.23 1055 1203.73 1055C1205.33 1055 1206.45 1054.72 1207.1 1054.17C1207.75 1053.57 1208.15 1052.85 1208.3 1052C1208.5 1051.1 1208.6 1050.17 1208.6 1049.22V1019.45C1208.6 1018.5 1208.5 1017.6 1208.3 1016.75C1208.15 1015.85 1207.75 1015.12 1207.1 1014.57C1206.45 1013.97 1205.33 1013.67 1203.73 1013.67C1203.23 1013.67 1202.78 1013.62 1202.38 1013.52C1202.03 1013.42 1201.83 1012.95 1201.78 1012.1C1201.78 1011.7 1201.88 1011.32 1202.08 1010.97C1202.33 1010.62 1202.68 1010.45 1203.13 1010.45C1204.73 1010.5 1206.25 1010.55 1207.7 1010.6C1209.15 1010.65 1210.63 1010.67 1212.13 1010.67H1223.38C1224.33 1010.67 1225.55 1010.75 1227.05 1010.9C1228.6 1011.05 1230.23 1011.35 1231.93 1011.8C1233.68 1012.25 1235.33 1012.97 1236.88 1013.97C1238.43 1014.97 1239.68 1016.3 1240.63 1017.95C1241.63 1019.6 1242.13 1021.67 1242.13 1024.17C1242.13 1026.52 1241.58 1028.65 1240.48 1030.55C1239.43 1032.45 1238 1034.07 1236.2 1035.42C1234.45 1036.77 1232.45 1037.82 1230.2 1038.57C1228 1039.27 1225.75 1039.62 1223.45 1039.62C1222.35 1039.62 1221.15 1039.55 1219.85 1039.4C1218.55 1039.25 1217.25 1038.92 1215.95 1038.42V1049.22C1216 1050.17 1216.1 1051.1 1216.25 1052C1216.4 1052.85 1216.8 1053.57 1217.45 1054.17C1218.15 1054.72 1219.28 1055 1220.83 1055C1221.38 1055 1221.83 1055.05 1222.18 1055.15C1222.53 1055.25 1222.73 1055.72 1222.78 1056.57C1222.78 1056.97 1222.65 1057.35 1222.4 1057.7C1222.2 1058.05 1221.88 1058.23 1221.43 1058.23C1218.23 1058.08 1215.1 1058 1212.05 1058C1210.55 1058 1209.08 1058 1207.63 1058C1206.23 1058.05 1204.73 1058.13 1203.13 1058.23ZM1221.28 1036.25C1222.43 1036.25 1223.7 1036.07 1225.1 1035.72C1226.55 1035.32 1227.93 1034.7 1229.23 1033.85C1230.58 1032.95 1231.68 1031.75 1232.53 1030.25C1233.38 1028.7 1233.8 1026.75 1233.8 1024.4C1233.8 1021.85 1233.3 1019.85 1232.3 1018.4C1231.3 1016.9 1230.05 1015.8 1228.55 1015.1C1227.1 1014.4 1225.65 1013.95 1224.2 1013.75C1222.75 1013.55 1221.58 1013.45 1220.68 1013.45C1219.48 1013.45 1218.53 1013.57 1217.83 1013.82C1217.13 1014.07 1216.63 1014.62 1216.33 1015.47C1216.08 1016.27 1215.95 1017.52 1215.95 1019.22V1035.42C1216.45 1035.62 1217.18 1035.82 1218.13 1036.02C1219.08 1036.17 1220.13 1036.25 1221.28 1036.25ZM1271.34 1059.5C1267.69 1059.5 1264.39 1058.83 1261.44 1057.47C1258.49 1056.12 1255.97 1054.3 1253.87 1052C1251.77 1049.7 1250.17 1047.1 1249.07 1044.2C1247.97 1041.25 1247.42 1038.17 1247.42 1034.97C1247.42 1030.82 1248.12 1027.15 1249.52 1023.95C1250.97 1020.75 1252.87 1018.05 1255.22 1015.85C1257.57 1013.65 1260.14 1012 1262.94 1010.9C1265.79 1009.75 1268.59 1009.17 1271.34 1009.17C1275.09 1009.17 1278.44 1009.85 1281.39 1011.2C1284.39 1012.55 1286.94 1014.37 1289.04 1016.68C1291.14 1018.98 1292.74 1021.6 1293.84 1024.55C1294.94 1027.45 1295.49 1030.47 1295.49 1033.62C1295.49 1037.77 1294.77 1041.45 1293.32 1044.65C1291.87 1047.85 1289.94 1050.55 1287.54 1052.75C1285.14 1054.95 1282.52 1056.62 1279.67 1057.77C1276.87 1058.93 1274.09 1059.5 1271.34 1059.5ZM1271.27 1056.2C1274.82 1056.2 1277.72 1055.15 1279.97 1053.05C1282.22 1050.95 1283.87 1048.2 1284.92 1044.8C1286.02 1041.35 1286.57 1037.62 1286.57 1033.62C1286.57 1029.87 1285.99 1026.4 1284.84 1023.2C1283.74 1019.95 1282.07 1017.35 1279.82 1015.4C1277.57 1013.4 1274.72 1012.4 1271.27 1012.4C1267.77 1012.4 1264.89 1013.45 1262.64 1015.55C1260.44 1017.6 1258.82 1020.32 1257.77 1023.72C1256.72 1027.07 1256.19 1030.75 1256.19 1034.75C1256.19 1038.5 1256.72 1042.02 1257.77 1045.32C1258.87 1048.57 1260.54 1051.2 1262.79 1053.2C1265.04 1055.2 1267.87 1056.2 1271.27 1056.2ZM1303.34 1058.23C1302.84 1058.18 1302.49 1058 1302.29 1057.7C1302.09 1057.35 1301.99 1056.97 1301.99 1056.57C1302.04 1055.72 1302.24 1055.25 1302.59 1055.15C1302.94 1055.05 1303.36 1055 1303.86 1055C1305.46 1055 1306.59 1054.72 1307.24 1054.17C1307.89 1053.57 1308.29 1052.85 1308.44 1052C1308.64 1051.1 1308.74 1050.17 1308.74 1049.22V1019.45C1308.74 1018.5 1308.64 1017.6 1308.44 1016.75C1308.29 1015.85 1307.89 1015.12 1307.24 1014.57C1306.59 1013.97 1305.46 1013.67 1303.86 1013.67C1303.36 1013.67 1302.94 1013.62 1302.59 1013.52C1302.24 1013.42 1302.04 1012.95 1301.99 1012.1C1301.99 1011.7 1302.09 1011.32 1302.29 1010.97C1302.49 1010.62 1302.84 1010.45 1303.34 1010.45C1304.94 1010.5 1306.44 1010.55 1307.84 1010.6C1309.24 1010.65 1310.69 1010.67 1312.19 1010.67C1315.24 1010.67 1318.36 1010.6 1321.56 1010.45C1322.06 1010.45 1322.41 1010.62 1322.61 1010.97C1322.81 1011.32 1322.91 1011.7 1322.91 1012.1C1322.86 1012.95 1322.66 1013.42 1322.31 1013.52C1322.01 1013.62 1321.59 1013.67 1321.04 1013.67C1319.49 1013.67 1318.36 1013.97 1317.66 1014.57C1317.01 1015.12 1316.61 1015.85 1316.46 1016.75C1316.31 1017.6 1316.21 1018.5 1316.16 1019.45V1046L1337.69 1018.85C1339.59 1016.5 1341.09 1014.75 1342.19 1013.6C1343.29 1012.45 1344.26 1011.67 1345.11 1011.27C1345.96 1010.87 1346.91 1010.65 1347.96 1010.6C1348.86 1010.5 1349.59 1010.45 1350.14 1010.45C1350.74 1010.45 1351.29 1010.45 1351.79 1010.45C1352.34 1010.45 1352.69 1010.62 1352.84 1010.97C1353.04 1011.32 1353.14 1011.7 1353.14 1012.1C1353.09 1012.95 1352.89 1013.42 1352.54 1013.52C1352.24 1013.62 1351.81 1013.67 1351.26 1013.67C1349.71 1013.67 1348.59 1013.97 1347.89 1014.57C1347.24 1015.12 1346.84 1015.85 1346.69 1016.75C1346.54 1017.6 1346.44 1018.5 1346.39 1019.45V1049.22C1346.44 1050.17 1346.54 1051.1 1346.69 1052C1346.84 1052.85 1347.24 1053.57 1347.89 1054.17C1348.59 1054.72 1349.71 1055 1351.26 1055C1351.81 1055 1352.24 1055.05 1352.54 1055.15C1352.89 1055.25 1353.09 1055.72 1353.14 1056.57C1353.14 1056.97 1353.04 1057.35 1352.84 1057.7C1352.64 1058.05 1352.29 1058.23 1351.79 1058.23C1350.19 1058.13 1348.69 1058.05 1347.29 1058C1345.89 1058 1344.44 1058 1342.94 1058C1339.99 1058 1336.89 1058.08 1333.64 1058.23C1333.14 1058.23 1332.79 1058.05 1332.59 1057.7C1332.39 1057.35 1332.29 1056.97 1332.29 1056.57C1332.34 1055.72 1332.54 1055.25 1332.89 1055.15C1333.24 1055.05 1333.66 1055 1334.16 1055C1335.76 1055 1336.89 1054.72 1337.54 1054.17C1338.19 1053.57 1338.59 1052.85 1338.74 1052C1338.94 1051.1 1339.04 1050.17 1339.04 1049.22V1022.75L1317.44 1049.75C1315.69 1051.9 1314.26 1053.57 1313.16 1054.77C1312.11 1055.92 1311.19 1056.75 1310.39 1057.25C1309.59 1057.7 1308.69 1057.97 1307.69 1058.08C1306.94 1058.13 1306.19 1058.18 1305.44 1058.23C1304.74 1058.28 1304.04 1058.28 1303.34 1058.23ZM1338.29 994.55C1339.34 994.55 1340.21 994.875 1340.91 995.525C1341.61 996.175 1341.96 997.125 1341.96 998.375C1341.96 1000.17 1341.26 1001.67 1339.86 1002.87C1338.46 1004.02 1336.66 1004.9 1334.46 1005.5C1332.26 1006.05 1329.96 1006.32 1327.56 1006.32C1325.21 1006.32 1322.91 1006.05 1320.66 1005.5C1318.46 1004.9 1316.66 1004.02 1315.26 1002.87C1313.86 1001.67 1313.16 1000.17 1313.16 998.375C1313.16 997.125 1313.51 996.175 1314.21 995.525C1314.91 994.875 1315.79 994.55 1316.84 994.55C1317.89 994.55 1318.71 994.875 1319.31 995.525C1319.96 996.125 1320.51 996.875 1320.96 997.775C1321.41 998.675 1321.89 999.6 1322.39 1000.55C1322.89 1001.45 1323.54 1002.22 1324.34 1002.87C1325.14 1003.47 1326.21 1003.77 1327.56 1003.77C1328.91 1003.77 1329.99 1003.47 1330.79 1002.87C1331.59 1002.22 1332.24 1001.45 1332.74 1000.55C1333.24 999.6 1333.71 998.675 1334.16 997.775C1334.61 996.875 1335.14 996.125 1335.74 995.525C1336.39 994.875 1337.24 994.55 1338.29 994.55Z" fill="black"/>
<circle cx="1076" cy="1076" r="1033" stroke="black" stroke-width="29"/>
</g>
<defs>
<linearGradient id="paint0_linear_55_55" x1="1691.34" y1="-546.967" x2="-989.757" y2="1391.92" gradientUnits="userSpaceOnUse">
<stop offset="0.114571" stop-color="#FFBF80"/>
<stop offset="0.298077" stop-color="#FEE9A6"/>
<stop offset="0.826923" stop-color="#FFD587"/>
<stop offset="0.980769" stop-color="#FFD587"/>
</linearGradient>
<linearGradient id="paint1_linear_55_55" x1="1691.34" y1="-546.966" x2="-856.961" y2="1287.67" gradientUnits="userSpaceOnUse">
<stop offset="0.114571" stop-color="#FFBF80"/>
<stop offset="0.298077" stop-color="#FEE9A6"/>
<stop offset="0.754808" stop-color="#FFD587"/>
<stop offset="0.980769" stop-color="#FFBF80"/>
</linearGradient>
<clipPath id="clip0_55_55">
<rect width="2152" height="2152" fill="white"/>
</clipPath>
</defs>
</svg>
